<svg xmlns="http://www.w3.org/2000/svg" viewBox="0 0 64 72"><path fill="none" d="M0 0h64v72H0z"/><path fill="#1da1f2" d="M3 37.315c0 4.125 2.162 7.726 5.363 9.624-.056.467-.09.937-.09 1.42 0 6.103 4.72 11.045 10.546 11.045 1.295 0 2.542-.234 3.687-.686C24.22 62.4 27.827 64.93 32 64.93c4.174 0 7.782-2.53 9.49-6.213 1.148.45 2.39.685 3.69.685 5.826 0 10.546-4.94 10.546-11.045 0-.483-.037-.953-.093-1.42C58.83 45.04 61 41.44 61 37.314c0-4.37-2.42-8.15-5.933-9.946.427-1.203.658-2.5.658-3.865 0-6.104-4.72-11.045-10.545-11.045-1.302 0-2.543.232-3.69.688-1.707-3.685-5.315-6.216-9.49-6.216-4.173 0-7.778 2.53-9.492 6.216-1.146-.455-2.393-.688-3.688-.688-5.827 0-10.545 4.94-10.545 11.045 0 1.364.23 2.662.656 3.864C5.42 29.163 3 32.944 3 37.314z"/><path fill="#FFF" d="M17.87 39.08l7.015 6.978c.585.582 1.35.873 2.116.873.77 0 1.542-.294 2.127-.883.344-.346 15.98-15.974 15.98-15.974 1.172-1.172 1.172-3.07 0-4.243-1.17-1.17-3.07-1.172-4.242 0l-13.87 13.863-4.892-4.868c-1.174-1.168-3.074-1.164-4.242.01-1.168 1.176-1.163 3.075.01 4.244z"/></svg>